<?xml version="1.0" encoding="UTF-8"?>
<svg width="96" height="96" viewBox="0 0 96 96" fill="none" xmlns="http://www.w3.org/2000/svg">
  <rect width="96" height="96" rx="48" fill="#E5E7EB" fill-opacity="0.1"/>
  <path d="M48 24C34.745 24 24 34.745 24 48C24 61.255 34.745 72 48 72C61.255 72 72 61.255 72 48C72 34.745 61.255 24 48 24ZM48 68C36.954 68 28 59.046 28 48C28 36.954 36.954 28 48 28C59.046 28 68 36.954 68 48C68 59.046 59.046 68 48 68Z" fill="currentColor"/>
  <path d="M48 32C39.163 32 32 39.163 32 48C32 56.837 39.163 64 48 64C56.837 64 64 56.837 64 48C64 39.163 56.837 32 48 32ZM48 60C41.373 60 36 54.627 36 48C36 41.373 41.373 36 48 36C54.627 36 60 41.373 60 48C60 54.627 54.627 60 48 60Z" fill="currentColor"/>
  <text x="48" y="52" text-anchor="middle" font-family="Arial" font-size="12" fill="currentColor">SOC 2</text>
</svg>
